<svg xmlns="http://www.w3.org/2000/svg" xmlns:xlink="http://www.w3.org/1999/xlink" viewBox="0 0 1362.25 319.95"><defs><style>.cls-1{fill:#24454c;}.cls-2{fill:url(#Gradient_bez_nazwy_29);}</style><radialGradient id="Gradient_bez_nazwy_29" cx="350.41" cy="-23.38" r="344.17" gradientUnits="userSpaceOnUse"><stop offset="0.15" stop-color="#1ad3f1"/><stop offset="1" stop-color="#1093a7"/></radialGradient></defs><title>Logo BD Media New</title><g id="Warstwa_2" data-name="Warstwa 2"><g id="Warstwa_1-2" data-name="Warstwa 1"><path class="cls-1" d="M359.26,165.34h1.25a4.53,4.53,0,0,0,3.24-1.5A15.88,15.88,0,0,0,368,156a21.54,21.54,0,0,0,.5-4.37V18.73a18.78,18.78,0,0,0-.5-4,17.74,17.74,0,0,0-1.63-4.38,11.61,11.61,0,0,0-2.74-3.49A5.52,5.52,0,0,0,360,5.49h-1.25V3h41q23.22,0,36.34,10.24t13.11,27.22a32.36,32.36,0,0,1-2.5,13,40.25,40.25,0,0,1-6.37,10.24,44.79,44.79,0,0,1-8.37,7.61,68.12,68.12,0,0,1-8.49,5.12,46.49,46.49,0,0,1,17.49,6.75A42.88,42.88,0,0,1,452.2,94a38.72,38.72,0,0,1,6,13.11,57.75,57.75,0,0,1,1.71,13.74q0,13-4.74,21.85a41.53,41.53,0,0,1-12.57,14.49,51.88,51.88,0,0,1-17.94,8.12,86.39,86.39,0,0,1-20.8,2.49h-44.6ZM432.93,42.58Q432.18,28,422.82,19.52T397.72,11H385.23V74.18h13q10.48,0,17.11-2.76a29.28,29.28,0,0,0,10.61-7.15,24,24,0,0,0,5.5-9.65,37.81,37.81,0,0,0,1.49-10.28Zm10.24,79.93q-2-19.29-13-29.82t-31-10.52h-14v77.67h14.49q20.22,0,31.84-9.14t11.61-25.43Z"/><path class="cls-1" d="M481.14,165.34h1.24a4.53,4.53,0,0,0,3.25-1.5,15.84,15.84,0,0,0,2.62-3.5,15.46,15.46,0,0,0,1.63-4.37,21.54,21.54,0,0,0,.5-4.37V18.48a19.91,19.91,0,0,0-2-8.24,11.61,11.61,0,0,0-2.5-3.37,5,5,0,0,0-3.5-1.38h-1.24V3h48.2q19.73,0,35.46,6.87a79.25,79.25,0,0,1,26.6,18.48A81,81,0,0,1,608,55a86.44,86.44,0,0,1,5.74,31.22A84.21,84.21,0,0,1,608.26,116a76.31,76.31,0,0,1-16.48,26.1,83,83,0,0,1-27.48,18.61q-16.49,7.11-38.21,7.11h-45ZM597,89.91a79.82,79.82,0,0,0-5.76-30.22,75.72,75.72,0,0,0-16.15-24.85A78.39,78.39,0,0,0,550.56,18a75.17,75.17,0,0,0-30.68-6.24H507.11V159.09h13.27A93.55,93.55,0,0,0,547.56,155a74.74,74.74,0,0,0,24.67-12.74,66.64,66.64,0,0,0,17.9-21.6Q597,107.66,597,89.91Z"/><path class="cls-1" d="M834.53,165.34h1.25a4.53,4.53,0,0,0,3.25-1.5,15.84,15.84,0,0,0,2.62-3.5,15.46,15.46,0,0,0,1.63-4.37,21.49,21.49,0,0,0,.49-4.37V20.23L779.34,170.58,718.15,28V151.6a20.85,20.85,0,0,0,.5,4.37,15.15,15.15,0,0,0,1.62,4.37,16.16,16.16,0,0,0,2.62,3.5,4.8,4.8,0,0,0,3.5,1.5h1.25v2.49H700.42v-2.49h1.25a4.53,4.53,0,0,0,3.24-1.5,13.31,13.31,0,0,0,2.5-3.5,18.6,18.6,0,0,0,1.5-4.37,21.54,21.54,0,0,0,.5-4.37V18.48a19.91,19.91,0,0,0-2-8.24,11.61,11.61,0,0,0-2.5-3.37,4.75,4.75,0,0,0-3.24-1.38h-1.25V3h25.47l57.94,136.61L841.78,3H870V5.49h-1.25a5.06,5.06,0,0,0-3.5,1.38,13.6,13.6,0,0,0-2.62,3.37A15.31,15.31,0,0,0,861,14.49a18.16,18.16,0,0,0-.5,4V151.6A20.85,20.85,0,0,0,861,156a15.15,15.15,0,0,0,1.62,4.37,15.84,15.84,0,0,0,2.62,3.5,4.8,4.8,0,0,0,3.5,1.5H870v2.49H834.53Z"/><path class="cls-1" d="M894.22,165.34h1.25A5,5,0,0,0,899,164a13.24,13.24,0,0,0,2.62-3.37,19.23,19.23,0,0,0,1.75-4.24,16.18,16.18,0,0,0,.62-4.25V18.48a15.32,15.32,0,0,0-.62-4,19.11,19.11,0,0,0-1.75-4.25A13.6,13.6,0,0,0,899,6.87a5.06,5.06,0,0,0-3.5-1.38h-1.25V3h96.16V26.22h-2.5a16.8,16.8,0,0,0-4.5-10.11q-4-4.36-12.48-4.37H920.7V74.93h41.46a13.82,13.82,0,0,0,9.61-3.5,10.77,10.77,0,0,0,3.87-8.24h2.5V94.41h-2.5a10,10,0,0,0-3.74-7.75,14.37,14.37,0,0,0-9.74-3.24H920.7v75.67h54.69a14.9,14.9,0,0,0,8.24-2.25,22.54,22.54,0,0,0,5.87-5.36,21.74,21.74,0,0,0,3.5-6.75,21.23,21.23,0,0,0,1.12-6.12h2.5v29.22H894.22Z"/><path class="cls-1" d="M1015.1,165.34h1.25a4.51,4.51,0,0,0,3.24-1.5,15.88,15.88,0,0,0,2.63-3.5,15.45,15.45,0,0,0,1.62-4.37,21.54,21.54,0,0,0,.5-4.37V18.48a18.78,18.78,0,0,0-.5-4,18.48,18.48,0,0,0-1.5-4.25,11.61,11.61,0,0,0-2.5-3.37,5,5,0,0,0-3.49-1.38h-1.25V3h48.2q19.73,0,35.47,6.87a79.35,79.35,0,0,1,26.6,18.48A81,81,0,0,1,1142,55a86.45,86.45,0,0,1,5.75,31.22,84.22,84.22,0,0,1-5.5,29.84,76.31,76.31,0,0,1-16.48,26.1,83,83,0,0,1-27.47,18.61q-16.49,7.11-38.22,7.11H1015.1ZM1131,89.91a79.82,79.82,0,0,0-5.76-30.22,75.72,75.72,0,0,0-16.15-24.85A78.34,78.34,0,0,0,1084.53,18a75.2,75.2,0,0,0-30.68-6.24h-12.78V159.09h13.28a93.54,93.54,0,0,0,27.17-4.12,74.74,74.74,0,0,0,24.67-12.74,66.79,66.79,0,0,0,17.91-21.6Q1131,107.66,1131,89.91Z"/><path class="cls-1" d="M1170.2,3h35.46V5.49h-1.25a4.74,4.74,0,0,0-3.24,1.38,12,12,0,0,0-2.5,3.25,19.4,19.4,0,0,0-1.63,4.24,16.88,16.88,0,0,0-.62,4.12V151.6a20.85,20.85,0,0,0,.5,4.37,15.15,15.15,0,0,0,1.62,4.37,18.4,18.4,0,0,0,2.5,3.5,4.39,4.39,0,0,0,3.37,1.5h1.25v2.49H1170.2v-2.49h1.24a5,5,0,0,0,3.5-1.38,12.76,12.76,0,0,0,2.62-3.49,17.44,17.44,0,0,0,1.63-4.5,21.54,21.54,0,0,0,.5-4.37V18.48a18.78,18.78,0,0,0-.5-4,15.65,15.65,0,0,0-1.63-4.25,13.6,13.6,0,0,0-2.62-3.37,5,5,0,0,0-3.5-1.38h-1.24Z"/><path class="cls-1" d="M1325.29,165.34h1.25c4,0,6-1.83,6-5.5a13.37,13.37,0,0,0-.75-4.24l-22.47-60.69H1265.6l-21.73,59.69a10.67,10.67,0,0,0-.75,3.74,7.18,7.18,0,0,0,1.75,5.12,5.1,5.1,0,0,0,3.75,1.88h1.25v2.49h-27.73v-2.49h1.25c2.16,0,4.29-1.29,6.37-3.88a33,33,0,0,0,5.12-9.11L1292.07,0l56,150.85a43.7,43.7,0,0,0,4.87,9.74q3.12,4.75,8.12,4.75h1.24v2.49h-37ZM1268.1,86.41h38.46l-19.23-52.19Z"/><path class="cls-1" d="M366,296.66h.5a1.81,1.81,0,0,0,1.3-.6,6.47,6.47,0,0,0,1-1.39,6,6,0,0,0,.65-1.74,8.69,8.69,0,0,0,.2-1.74V238.13a7.66,7.66,0,0,0-.2-1.59,6.93,6.93,0,0,0-.6-1.69,4.72,4.72,0,0,0-1-1.35,2,2,0,0,0-1.4-.54H366v-1h19.22a34.89,34.89,0,0,1,14.13,2.74,31.67,31.67,0,0,1,10.6,7.36,32.34,32.34,0,0,1,6.62,10.6,34.44,34.44,0,0,1,2.29,12.45A33.49,33.49,0,0,1,416.67,277a30.38,30.38,0,0,1-6.57,10.4,32.93,32.93,0,0,1-11,7.42,38.14,38.14,0,0,1-15.23,2.84H366Zm46.19-30.06a31.77,31.77,0,0,0-2.29-12,30.14,30.14,0,0,0-6.44-9.91,31.34,31.34,0,0,0-9.78-6.72,30,30,0,0,0-12.23-2.49h-5.09v58.73h5.29a37.17,37.17,0,0,0,10.83-1.64,30,30,0,0,0,9.83-5.08,26.57,26.57,0,0,0,7.14-8.61A25.89,25.89,0,0,0,412.19,266.6Z"/><path class="cls-1" d="M432.9,277.55a24.13,24.13,0,0,0,1.69,6.62,19,19,0,0,0,3.43,5.52,16.1,16.1,0,0,0,5.23,3.84,16.73,16.73,0,0,0,7.16,1.44,18.11,18.11,0,0,0,4.63-.65,18.48,18.48,0,0,0,4.53-1.84,15.88,15.88,0,0,0,3.73-2.94,9.05,9.05,0,0,0,2.24-3.93h.9v7.47a2.82,2.82,0,0,0-1.34.4c-.5.26-1.08.59-1.75,1A37.87,37.87,0,0,1,458,297a24.66,24.66,0,0,1-9,1.34,27.75,27.75,0,0,1-8.51-1.29,20,20,0,0,1-7.12-4,19.15,19.15,0,0,1-4.92-6.87,24.56,24.56,0,0,1-1.85-10,23.77,23.77,0,0,1,1.25-7.46,20.66,20.66,0,0,1,3.78-6.82,19.12,19.12,0,0,1,6.52-4.93,22.12,22.12,0,0,1,9.56-1.89,21.08,21.08,0,0,1,8.71,1.69,16.9,16.9,0,0,1,6.17,4.68,20,20,0,0,1,3.63,7.07,31.68,31.68,0,0,1,1.2,9Zm14.43-19.11a12.28,12.28,0,0,0-6,1.39,14.51,14.51,0,0,0-4.33,3.59,16.37,16.37,0,0,0-2.79,5A23.46,23.46,0,0,0,432.9,274h28.36a19.49,19.49,0,0,0-1-5.68,17,17,0,0,0-2.64-5,12.53,12.53,0,0,0-10.25-4.88Z"/><path class="cls-1" d="M505.16,286.31a9.24,9.24,0,0,1-1.29,4.78,13,13,0,0,1-3.54,3.83,18,18,0,0,1-5.22,2.59,21.35,21.35,0,0,1-6.47.94,18,18,0,0,1-7-1.14,32.82,32.82,0,0,1-4.58-2.34c-.86-.53-1.66-1-2.39-1.34a5.22,5.22,0,0,0-2.39-.55v-7.57h1a7.13,7.13,0,0,0,1.74,3,18.21,18.21,0,0,0,3.48,3,22.11,22.11,0,0,0,4.48,2.34,13.57,13.57,0,0,0,4.93.95,17.55,17.55,0,0,0,3.68-.4,11.61,11.61,0,0,0,3.44-1.29,9.06,9.06,0,0,0,2.59-2.24,5.52,5.52,0,0,0,0-6.52,10.72,10.72,0,0,0-2.79-2.44,21.17,21.17,0,0,0-3.88-1.84q-2.19-.79-4.38-1.5c-1.73-.53-3.47-1.12-5.23-1.79a24.82,24.82,0,0,1-4.73-2.34,11.39,11.39,0,0,1-3.38-3.28,8.12,8.12,0,0,1-1.3-4.63,11.62,11.62,0,0,1,.85-4.38,8.81,8.81,0,0,1,2.79-3.63,15.1,15.1,0,0,1,5-2.49,25.76,25.76,0,0,1,7.47-1,21.83,21.83,0,0,1,6,.65,23.14,23.14,0,0,1,3.54,1.34,7.42,7.42,0,0,0,1.79.75,7.23,7.23,0,0,0,2,.25v7h-.8a11.48,11.48,0,0,0-5.47-5,17.94,17.94,0,0,0-7.57-1.69,12.69,12.69,0,0,0-4.28.64,10,10,0,0,0-2.93,1.6,6,6,0,0,0-1.7,2.14,5.73,5.73,0,0,0-.54,2.39,4.47,4.47,0,0,0,.94,2.88,8.12,8.12,0,0,0,2.59,2.09,32.64,32.64,0,0,0,3.68,1.7c1.36.53,2.8,1,4.33,1.49,1.86.6,3.72,1.24,5.58,1.94a23.42,23.42,0,0,1,5,2.54,13.41,13.41,0,0,1,3.59,3.53A8.51,8.51,0,0,1,505.16,286.31Z"/><path class="cls-1" d="M515.11,297.66v-1a1.92,1.92,0,0,0,1.4-.6,5,5,0,0,0,1-1.39,6.87,6.87,0,0,0,.6-1.74,8.69,8.69,0,0,0,.2-1.74V263.61a10.54,10.54,0,0,0-.5-3.23c-.33-1-1.29-1.58-2.89-1.64v-.9l10-3.18v36.53a8,8,0,0,0,.2,1.74,7.27,7.27,0,0,0,.59,1.74,5.25,5.25,0,0,0,1,1.39,1.9,1.9,0,0,0,1.39.6v1Zm.5-52.56a4.71,4.71,0,0,1,1.35-3.39,4.45,4.45,0,0,1,3.33-1.39,4.76,4.76,0,0,1,4.78,4.78,4.27,4.27,0,0,1-1.4,3.28,4.75,4.75,0,0,1-3.38,1.3,4.57,4.57,0,0,1-3.33-1.3A4.34,4.34,0,0,1,515.61,245.1Z"/><path class="cls-1" d="M564.84,296.26a32.52,32.52,0,0,1,6.64,1.6,14.37,14.37,0,0,1,4.24,2.33,7.15,7.15,0,0,1,2.2,3,10.22,10.22,0,0,1,.6,3.53,9.66,9.66,0,0,1-1.84,5.88,14.93,14.93,0,0,1-4.78,4.13,23.86,23.86,0,0,1-6.67,2.44,36.47,36.47,0,0,1-7.61.79,35.07,35.07,0,0,1-7.27-.74,22.48,22.48,0,0,1-6.17-2.24,12.72,12.72,0,0,1-4.28-3.74,8.73,8.73,0,0,1,0-10.05,17.76,17.76,0,0,1,5.17-4.63,13,13,0,0,1-5.32-4.83,11.8,11.8,0,0,1-1.84-6.22,8.54,8.54,0,0,1,.89-3.73,10.13,10.13,0,0,1,2.89-3.43,12.62,12.62,0,0,1-2.39-4,12.94,12.94,0,0,1-.7-4.28,15,15,0,0,1,1.5-6.66,16.87,16.87,0,0,1,4.08-5.38,18.93,18.93,0,0,1,6.07-3.58,21.1,21.1,0,0,1,7.47-1.3,22,22,0,0,1,8,1.45,20.52,20.52,0,0,1,6.37,3.73h7.17v3.58h-4.58a36.51,36.51,0,0,1,1.39,3.54,13.12,13.12,0,0,1,.7,4.23,12.7,12.7,0,0,1-1.5,6,16.07,16.07,0,0,1-4.14,5,20.85,20.85,0,0,1-6.19,3.38,22.59,22.59,0,0,1-7.54,1.24,23.92,23.92,0,0,1-7.19-1.09A19.28,19.28,0,0,1,544,283a3.53,3.53,0,0,0-1.5,1.75,5.84,5.84,0,0,0-.4,2.14,5.45,5.45,0,0,0,2.89,4.92,20.07,20.07,0,0,0,7.39,2.44Zm-5.43,19.91a28,28,0,0,0,5.67-.55,19.75,19.75,0,0,0,4.73-1.54,9.75,9.75,0,0,0,3.23-2.39,4.49,4.49,0,0,0,1.2-3,3.51,3.51,0,0,0-1.64-2.89,15.93,15.93,0,0,0-4.43-2.09,48.7,48.7,0,0,0-6.47-1.54L554,300.84,549,300a10.28,10.28,0,0,0-3.19,3.78,8.62,8.62,0,0,0-.89,3.48,6.36,6.36,0,0,0,1.14,3.73,10,10,0,0,0,3.09,2.84,14.84,14.84,0,0,0,4.57,1.79A25.84,25.84,0,0,0,559.41,316.17Zm-2.83-57.53a11.85,11.85,0,0,0-4.47.84,12,12,0,0,0-3.67,2.34,11,11,0,0,0-2.52,3.64,11.78,11.78,0,0,0-.95,4.82,12.67,12.67,0,0,0,1.34,5.88,13.32,13.32,0,0,0,3.42,4.28,15.29,15.29,0,0,0,4.61,2.58,14.37,14.37,0,0,0,4.81.9,10.41,10.41,0,0,0,4.51-.95,10.88,10.88,0,0,0,3.52-2.58,11.42,11.42,0,0,0,2.28-3.84,13.29,13.29,0,0,0,.8-4.58,12.56,12.56,0,0,0-1.19-5.47,13.48,13.48,0,0,0-3.13-4.23,14.25,14.25,0,0,0-9.36-3.63Z"/><path class="cls-1" d="M628,291.19a8.69,8.69,0,0,0,.2,1.74,6,6,0,0,0,.65,1.74,7,7,0,0,0,1,1.39,1.76,1.76,0,0,0,1.35.6v1H618.34v-1a1.81,1.81,0,0,0,1.29-.6,5.87,5.87,0,0,0,1-1.39,6,6,0,0,0,.65-1.74,8.69,8.69,0,0,0,.2-1.74V272.67a17.86,17.86,0,0,0-1-6.27,13.13,13.13,0,0,0-2.68-4.48,10.76,10.76,0,0,0-3.84-2.64,11.74,11.74,0,0,0-4.33-.84,11.18,11.18,0,0,0-4.32.89,13.87,13.87,0,0,0-3.79,2.34,12.1,12.1,0,0,0-2.68,3.39,8.36,8.36,0,0,0-1,4v22.1a8.69,8.69,0,0,0,.2,1.74,6,6,0,0,0,.65,1.74,7,7,0,0,0,1,1.39,1.76,1.76,0,0,0,1.35.6v1H588.07v-1a1.81,1.81,0,0,0,1.3-.6,5.87,5.87,0,0,0,1-1.39,6,6,0,0,0,.65-1.74,8.69,8.69,0,0,0,.2-1.74V263.71a10.54,10.54,0,0,0-.5-3.23c-.33-1-1.29-1.58-2.88-1.64v-.9l10-3.19v5.48a17.74,17.74,0,0,1,1.79-1.74,15,15,0,0,1,2.64-1.79,16.1,16.1,0,0,1,3.58-1.4,19,19,0,0,1,4.83-.55,18.13,18.13,0,0,1,8,1.6,15.71,15.71,0,0,1,5.38,4.13,16.39,16.39,0,0,1,3,5.57,19.92,19.92,0,0,1,1,5.92Z"/><path class="cls-1" d="M725.94,290.29c1.39,1.19,2.72,2.26,4,3.19a40.61,40.61,0,0,0,3.48,2.19,6.79,6.79,0,0,0,3.19,1v1H731a14.65,14.65,0,0,1-6.67-1.45,33.18,33.18,0,0,1-5.47-3.43L709,285q-5.37,7.28-11.09,10.41a26,26,0,0,1-12.7,3.13,22.57,22.57,0,0,1-8-1.34,18.47,18.47,0,0,1-6-3.58,15.56,15.56,0,0,1-5-11.4,19.42,19.42,0,0,1,3.49-11.7q3.48-4.83,11.64-8.71A37.71,37.71,0,0,1,674,254a14.32,14.32,0,0,1-2.59-8.06,13.85,13.85,0,0,1,4.18-10,15.3,15.3,0,0,1,4.63-3.08,14.36,14.36,0,0,1,5.82-1.15,16,16,0,0,1,6.67,1.3,15.36,15.36,0,0,1,4.88,3.38,13.69,13.69,0,0,1,3,4.83,15.86,15.86,0,0,1,1,5.52,15.37,15.37,0,0,1-2.29,7.67q-2.29,4-8,7.26,4.58,3.79,9.45,7.87t9.66,7.86a54.25,54.25,0,0,0,3.23-8c.83-2.66,1.5-5.1,2-7.32a50.19,50.19,0,0,0,1-5.82c.16-1.66.25-2.85.25-3.59a3.31,3.31,0,0,0-1-2.33,3,3,0,0,0-2.19-1.05v-1H724v1a3.12,3.12,0,0,0-2.05.95,3.8,3.8,0,0,0-1.24,2.33A96.35,96.35,0,0,1,719,262.62a89.27,89.27,0,0,1-2.39,8.76,34.1,34.1,0,0,1-3.68,8q2,1.89,4.28,3.78l4.48,3.69Zm-37.83,4.78a16.81,16.81,0,0,0,9.71-3.39,38.46,38.46,0,0,0,8.81-8.76l-11.15-9.3q-5.67-4.72-11.15-9.21a21.62,21.62,0,0,0-9,7.17,15.31,15.31,0,0,0-2.89,8.66,12.39,12.39,0,0,0,1.2,5.27,16,16,0,0,0,3.28,4.68,17.46,17.46,0,0,0,5,3.44A15.72,15.72,0,0,0,688.11,295.07ZM677.56,245.6a14.2,14.2,0,0,0,3.88,6.86,80,80,0,0,0,6.87,6.48,12.56,12.56,0,0,0,6-4.83,11.61,11.61,0,0,0,2.09-6.32,14.92,14.92,0,0,0-.74-4.68,13.42,13.42,0,0,0-2.19-4.13,10.89,10.89,0,0,0-3.69-3,11.34,11.34,0,0,0-5.22-1.14,6.22,6.22,0,0,0-5.23,2.58,10.05,10.05,0,0,0-1.94,6.18v1A2.74,2.74,0,0,0,677.56,245.6Z"/><path class="cls-1" d="M809.45,280a16.57,16.57,0,0,1-7.14,14.23,21.65,21.65,0,0,1-7.09,3.19,32.07,32.07,0,0,1-7.83,1,26.22,26.22,0,0,1-6.89-.79c-1.93-.53-3.7-1-5.29-1.5-1.07-.33-2-.61-2.89-.84a9.62,9.62,0,0,0-2.59-.35V283.62h1a8.84,8.84,0,0,0,1.94,6,13.19,13.19,0,0,0,4.54,3.44,18.29,18.29,0,0,0,5.19,1.54,32.63,32.63,0,0,0,3.8.35,19.81,19.81,0,0,0,7.39-1.25,14.53,14.53,0,0,0,5.09-3.28,13.12,13.12,0,0,0,3-4.53,14.2,14.2,0,0,0,1-5.08,10.23,10.23,0,0,0-1.39-5.52,14.55,14.55,0,0,0-3.64-3.93,23.18,23.18,0,0,0-5.12-2.89l-5.88-2.39c-2.25-.86-4.48-1.76-6.67-2.68A25.88,25.88,0,0,1,774,260a16.43,16.43,0,0,1-4.18-4.88,14.17,14.17,0,0,1-1.59-7,16.22,16.22,0,0,1,1.69-7.62,15.39,15.39,0,0,1,4.53-5.32,20.17,20.17,0,0,1,6.47-3.14,26.55,26.55,0,0,1,7.42-1,32.62,32.62,0,0,1,4.87.35c1.53.24,3,.52,4.38.85,1.13.26,2.23.48,3.29.65a20.67,20.67,0,0,0,3.08.24v10.26h-1c-.14-3.45-1.5-5.79-4.1-7s-6.19-1.84-10.79-1.84a14.05,14.05,0,0,0-6.54,1.34,12.19,12.19,0,0,0-4,3.29,11.08,11.08,0,0,0-2,4.18,16.54,16.54,0,0,0-.55,3.93,8.75,8.75,0,0,0,1.25,4.78,12.11,12.11,0,0,0,3.34,3.48,26.67,26.67,0,0,0,4.84,2.69q2.74,1.2,5.74,2.29,3.39,1.29,6.89,2.79a26.67,26.67,0,0,1,6.24,3.68,17.6,17.6,0,0,1,4.49,5.37A15.93,15.93,0,0,1,809.45,280Z"/><path class="cls-1" d="M838.81,298.35a23.23,23.23,0,0,1-9-1.64,20.74,20.74,0,0,1-6.82-4.48,19.65,19.65,0,0,1-4.38-6.72,24.17,24.17,0,0,1,.15-17.37,20.75,20.75,0,0,1,4.68-6.92,21.08,21.08,0,0,1,7.07-4.47,25.43,25.43,0,0,1,17.62-.05A20.44,20.44,0,0,1,855,261a19.53,19.53,0,0,1,4.48,6.62,21.69,21.69,0,0,1,1.59,8.41,24.54,24.54,0,0,1-1.44,8.31,20.61,20.61,0,0,1-4.29,7.11,21.42,21.42,0,0,1-7,5A22.92,22.92,0,0,1,838.81,298.35Zm-.64-39.91a14.11,14.11,0,0,0-6.3,1.74,14.86,14.86,0,0,0-4.57,4,17.86,17.86,0,0,0-2.78,5.53,21.55,21.55,0,0,0-.94,6.27,22.43,22.43,0,0,0,1.14,7.11A19.75,19.75,0,0,0,828,289.2a16.17,16.17,0,0,0,5.11,4.28,13.86,13.86,0,0,0,6.64,1.59,13,13,0,0,0,6.5-1.59,14.82,14.82,0,0,0,4.72-4.14,18,18,0,0,0,2.82-5.72,22.25,22.25,0,0,0,1-6.37,23.21,23.21,0,0,0-1-6.62,19,19,0,0,0-3.08-6.07,16.21,16.21,0,0,0-5.21-4.43A15,15,0,0,0,838.17,258.44Z"/><path class="cls-1" d="M879.22,259.23v32a8.69,8.69,0,0,0,.2,1.74,6,6,0,0,0,.65,1.74,7.07,7.07,0,0,0,1,1.39,1.73,1.73,0,0,0,1.34.6v1H869.47v-1a1.81,1.81,0,0,0,1.29-.6,6.19,6.19,0,0,0,1-1.39,6.25,6.25,0,0,0,.65-1.74,8.63,8.63,0,0,0,.19-1.74v-32h-5v-3.38h5v-8.06q0-3.09.2-6a15.63,15.63,0,0,1,1.2-5.17,8.39,8.39,0,0,1,3-3.68,9.87,9.87,0,0,1,5.63-1.4,11.6,11.6,0,0,1,3.43.45,15.73,15.73,0,0,1,2.49,1c.7.37,1.28.7,1.74,1a2.33,2.33,0,0,0,1.2.45v7.26h-.9a8.28,8.28,0,0,0-2.59-4.82A6.16,6.16,0,0,0,883.9,235a3.7,3.7,0,0,0-3.78,3,30.92,30.92,0,0,0-.9,8.41v9.46h11.25v3.38Z"/><path class="cls-1" d="M907.59,259.23v24c0,1.73,0,3.29.1,4.68a15.66,15.66,0,0,0,.5,3.49,4.55,4.55,0,0,0,1.19,2.14,3.12,3.12,0,0,0,2.19.74,5.35,5.35,0,0,0,3.94-2,9.32,9.32,0,0,0,2.33-4.78h.9v7.27a2,2,0,0,0-1.49.6,13.28,13.28,0,0,1-2.24,1.49,9.23,9.23,0,0,1-4.33.8,9.63,9.63,0,0,1-5.58-1.4,7.88,7.88,0,0,1-2.88-3.68,16.21,16.21,0,0,1-1.05-5.08c-.1-1.85-.15-3.75-.15-5.67v-22.6h-5.57v-3.38H901V247a10.76,10.76,0,0,0-.44-3.13c-.3-1-1.28-1.48-2.94-1.55v-1l10-3.19v17.72h11.15v3.38Z"/><path class="cls-1" d="M987.22,256.84a3.6,3.6,0,0,0-2.73,1,9.2,9.2,0,0,0-1.75,3l-15,37.62L954.87,267l-12.74,31.35L927.4,261.92a22.61,22.61,0,0,0-1.74-3.38,3.14,3.14,0,0,0-2.74-1.7v-1h13.64v1a3.52,3.52,0,0,0-1.74.65,2.32,2.32,0,0,0-1.05,2.14,4.82,4.82,0,0,0,.15.85,7,7,0,0,0,.35,1.14L944,285.71l12.55-31,12.64,31,9.85-24.49a8,8,0,0,0,.5-2.09,2.54,2.54,0,0,0-.5-1.49,2.19,2.19,0,0,0-1.69-.8v-1h9.85Z"/><path class="cls-1" d="M1019.57,297.66v-5.08l-.49.5a18.21,18.21,0,0,1-5.73,3.88,22.77,22.77,0,0,1-13.78.6,11,11,0,0,1-4.09-2.24,8.77,8.77,0,0,1-2.33-3.34,10.7,10.7,0,0,1-.75-4,10,10,0,0,1,1.84-6,16.27,16.27,0,0,1,5.33-4.58,45.27,45.27,0,0,1,8.51-3.63q5-1.65,11.49-3.24a13.74,13.74,0,0,0-1.59-6.27,11.69,11.69,0,0,0-3.28-3.73,10.56,10.56,0,0,0-4-1.79,17.34,17.34,0,0,0-3.58-.45,11.9,11.9,0,0,0-4.53.79,12.73,12.73,0,0,0-3.38,2,14.22,14.22,0,0,0-2.44,2.69,17.87,17.87,0,0,0-1.59,2.74h-.9v-7.27a3.91,3.91,0,0,0,1.49-.49,13.76,13.76,0,0,1,1.7-.8q1.49-.6,4.08-1.74a18.45,18.45,0,0,1,7.26-1.15,23.59,23.59,0,0,1,8.86,1.4,12.74,12.74,0,0,1,5.23,3.68,12.18,12.18,0,0,1,2.44,5.23,30.65,30.65,0,0,1,.59,6v19.71a8,8,0,0,0,.9,3.73,2.69,2.69,0,0,0,2.39,1.74v1Zm0-9.46V274l-1,.2c-1.59.39-3.54.92-5.83,1.59a36,36,0,0,0-6.52,2.59,21.07,21.07,0,0,0-5.27,3.78,7,7,0,0,0-2.19,5.08,6.48,6.48,0,0,0,2.59,5.27,10.45,10.45,0,0,0,6.77,2.09,11.31,11.31,0,0,0,5.77-1.44,19.14,19.14,0,0,0,4.58-3.74Z"/><path class="cls-1" d="M1063.07,263.12a5.55,5.55,0,0,0-2.49-2.49,8.31,8.31,0,0,0-3-.5,6.36,6.36,0,0,0-2.34.5,13,13,0,0,0-2.44,1.29,27.24,27.24,0,0,0-2.34,1.74c-.77.63-1.41,1.22-1.94,1.75v25.88a7.39,7.39,0,0,0,.2,1.69,7,7,0,0,0,.64,1.74,5.65,5.65,0,0,0,1,1.39,1.8,1.8,0,0,0,1.34.55v1h-12.94v-1a1.87,1.87,0,0,0,1.3-.55,5.05,5.05,0,0,0,1-1.39,6.67,6.67,0,0,0,.65-1.74,8,8,0,0,0,.2-1.69V263.51a5.11,5.11,0,0,0-.9-2.78,4,4,0,0,0-2.59-1.79v-.8l10.06-3v6c.59-.73,1.22-1.45,1.89-2.14a13.79,13.79,0,0,1,2.24-1.9,12.82,12.82,0,0,1,2.74-1.39,10.17,10.17,0,0,1,3.48-.55,14.16,14.16,0,0,1,3.58.6,20.44,20.44,0,0,1,3.59,1.29Z"/><path class="cls-1" d="M1077.8,277.55a24.87,24.87,0,0,0,1.69,6.62,19.2,19.2,0,0,0,3.44,5.52,16.05,16.05,0,0,0,5.22,3.84,16.81,16.81,0,0,0,7.17,1.44,18.17,18.17,0,0,0,4.63-.65,18.64,18.64,0,0,0,4.53-1.84,15.88,15.88,0,0,0,3.73-2.94,9.15,9.15,0,0,0,2.24-3.93h.9v7.47a2.89,2.89,0,0,0-1.35.4q-.75.39-1.74,1a38.41,38.41,0,0,1-5.37,2.54,24.69,24.69,0,0,1-9,1.34,27.7,27.7,0,0,1-8.51-1.29,20,20,0,0,1-7.12-4,19.18,19.18,0,0,1-4.93-6.87,24.56,24.56,0,0,1-1.84-10,23.76,23.76,0,0,1,1.24-7.46,20.69,20.69,0,0,1,3.79-6.82,19,19,0,0,1,6.52-4.93,22.1,22.1,0,0,1,9.55-1.89,21,21,0,0,1,8.71,1.69,16.73,16.73,0,0,1,6.17,4.68,19.85,19.85,0,0,1,3.64,7.07,32.05,32.05,0,0,1,1.19,9Zm14.43-19.11a12.34,12.34,0,0,0-6,1.39,14.77,14.77,0,0,0-4.33,3.59,16.55,16.55,0,0,0-2.78,5,24,24,0,0,0-1.3,5.58h28.37a20.18,20.18,0,0,0-1-5.68,17.26,17.26,0,0,0-2.64-5,12.53,12.53,0,0,0-10.26-4.88Z"/><path class="cls-1" d="M1160.62,291.19a8,8,0,0,0,.2,1.74,5.94,5.94,0,0,0,.64,1.74,7.07,7.07,0,0,0,1,1.39,1.73,1.73,0,0,0,1.34.6v1H1151v-1a1.79,1.79,0,0,0,1.29-.6,6.19,6.19,0,0,0,1-1.39,6.25,6.25,0,0,0,.65-1.74,8.69,8.69,0,0,0,.2-1.74V272.67a18.09,18.09,0,0,0-1-6.27,13,13,0,0,0-2.69-4.48,10.72,10.72,0,0,0-3.83-2.64,11.58,11.58,0,0,0-8.66,0,12.39,12.39,0,0,0-3.78,2.34,11.93,11.93,0,0,0-2.69,3.64,10.54,10.54,0,0,0-1,4.72v21.21a8,8,0,0,0,.2,1.74,5.94,5.94,0,0,0,.64,1.74,7.07,7.07,0,0,0,1,1.39,1.73,1.73,0,0,0,1.34.6v1H1120.7v-1a1.83,1.83,0,0,0,1.3-.6,6.47,6.47,0,0,0,1-1.39,6.25,6.25,0,0,0,.65-1.74,8.69,8.69,0,0,0,.2-1.74V240.32a10,10,0,0,0-.5-3.18c-.33-1-1.3-1.53-2.89-1.6v-1l10-3.09v28.77a17.74,17.74,0,0,1,1.79-1.74,15,15,0,0,1,2.64-1.79,15.91,15.91,0,0,1,3.58-1.4,19,19,0,0,1,4.83-.55,18.13,18.13,0,0,1,8,1.6,15.67,15.67,0,0,1,5.37,4.13,16.25,16.25,0,0,1,3,5.57,19.92,19.92,0,0,1,.95,5.92Z"/><path class="cls-1" d="M1194.46,298.35a23.19,23.19,0,0,1-9-1.64,20.64,20.64,0,0,1-6.82-4.48,19.65,19.65,0,0,1-4.38-6.72,24.17,24.17,0,0,1,.15-17.37,20.75,20.75,0,0,1,4.68-6.92,21.08,21.08,0,0,1,7.07-4.47,25.43,25.43,0,0,1,17.62-.05,20.3,20.3,0,0,1,6.86,4.33,19.25,19.25,0,0,1,4.48,6.62,21.69,21.69,0,0,1,1.6,8.41,24.55,24.55,0,0,1-1.45,8.31,20.58,20.58,0,0,1-4.28,7.11,21.42,21.42,0,0,1-7,5A22.92,22.92,0,0,1,1194.46,298.35Zm-.64-39.91a14.11,14.11,0,0,0-6.3,1.74,14.75,14.75,0,0,0-4.57,4,17.86,17.86,0,0,0-2.78,5.53,21.22,21.22,0,0,0-.94,6.27,22.43,22.43,0,0,0,1.14,7.11,19.75,19.75,0,0,0,3.28,6.13,16.25,16.25,0,0,0,5.1,4.28,13.93,13.93,0,0,0,6.65,1.59,13,13,0,0,0,6.5-1.59,14.82,14.82,0,0,0,4.72-4.14,18,18,0,0,0,2.82-5.72,22.25,22.25,0,0,0,1-6.37,23.22,23.22,0,0,0-1-6.62,18.79,18.79,0,0,0-3.07-6.07,16.21,16.21,0,0,0-5.21-4.43A15.09,15.09,0,0,0,1193.82,258.44Z"/><path class="cls-1" d="M1265,291.19a8.35,8.35,0,0,0,.2,1.64,10.08,10.08,0,0,0,.55,1.79,4.38,4.38,0,0,0,.94,1.44,1.92,1.92,0,0,0,1.4.6v1h-9.66v-5.48a17.71,17.71,0,0,1-4.38,4.28,12.36,12.36,0,0,1-7.46,2.09q-5.77,0-9.16-2a14.12,14.12,0,0,1-5.18-5.08,18.11,18.11,0,0,1-2.28-6.71,49.25,49.25,0,0,1-.5-6.82V263.71c0-.59,0-1.17,0-1.74a4.07,4.07,0,0,0-.4-1.54,2.82,2.82,0,0,0-1-1.15,3.74,3.74,0,0,0-2-.44v-.9l10.06-3.19v25.39q0,7.56,3.28,11.15a10.54,10.54,0,0,0,8.06,3.58,9.22,9.22,0,0,0,4.63-1.15,13.82,13.82,0,0,0,3.49-2.73,12.41,12.41,0,0,0,2.19-3.29,7.38,7.38,0,0,0,.74-2.78V263.71c0-.59,0-1.17,0-1.74a3.74,3.74,0,0,0-.4-1.54,2.87,2.87,0,0,0-1-1.15,3.79,3.79,0,0,0-2-.44v-.9l10-3.19Z"/><path class="cls-1" d="M1310.12,286.31a9.24,9.24,0,0,1-1.29,4.78,12.82,12.82,0,0,1-3.54,3.83,18,18,0,0,1-5.22,2.59,21.35,21.35,0,0,1-6.47.94,18.05,18.05,0,0,1-7-1.14,32.82,32.82,0,0,1-4.58-2.34c-.86-.53-1.66-1-2.39-1.34a5.19,5.19,0,0,0-2.39-.55v-7.57h1a7.13,7.13,0,0,0,1.74,3,18,18,0,0,0,3.49,3,22,22,0,0,0,4.47,2.34,13.57,13.57,0,0,0,4.93.95,17.64,17.64,0,0,0,3.69-.4,11.66,11.66,0,0,0,3.43-1.29,9.06,9.06,0,0,0,2.59-2.24,5.52,5.52,0,0,0,0-6.52,10.56,10.56,0,0,0-2.79-2.44,20.86,20.86,0,0,0-3.88-1.84q-2.19-.79-4.38-1.5c-1.73-.53-3.47-1.12-5.23-1.79a24.82,24.82,0,0,1-4.73-2.34,11.39,11.39,0,0,1-3.38-3.28,8.19,8.19,0,0,1-1.29-4.63,11.61,11.61,0,0,1,.84-4.38,9,9,0,0,1,2.79-3.63,15.06,15.06,0,0,1,5-2.49,25.64,25.64,0,0,1,7.46-1,21.78,21.78,0,0,1,6,.65,23.14,23.14,0,0,1,3.54,1.34,7.59,7.59,0,0,0,1.79.75,7.28,7.28,0,0,0,2,.25v7h-.8a11.48,11.48,0,0,0-5.47-5,17.94,17.94,0,0,0-7.57-1.69,12.69,12.69,0,0,0-4.28.64,10,10,0,0,0-2.93,1.6,5.88,5.88,0,0,0-1.69,2.14,5.59,5.59,0,0,0-.55,2.39,4.47,4.47,0,0,0,.94,2.88,8.23,8.23,0,0,0,2.59,2.09,33.48,33.48,0,0,0,3.68,1.7c1.36.53,2.81,1,4.33,1.49,1.86.6,3.72,1.24,5.58,1.94a23.27,23.27,0,0,1,5,2.54,13.52,13.52,0,0,1,3.58,3.53A8.51,8.51,0,0,1,1310.12,286.31Z"/><path class="cls-1" d="M1324.16,277.55a24.5,24.5,0,0,0,1.69,6.62,19.17,19.17,0,0,0,3.43,5.52,16.1,16.1,0,0,0,5.23,3.84,16.78,16.78,0,0,0,7.17,1.44,18.09,18.09,0,0,0,4.62-.65,18.48,18.48,0,0,0,4.53-1.84,15.93,15.93,0,0,0,3.74-2.94,9.26,9.26,0,0,0,2.24-3.93h.89v7.47a2.85,2.85,0,0,0-1.34.4q-.75.39-1.74,1a38.06,38.06,0,0,1-5.38,2.54,24.66,24.66,0,0,1-9,1.34,27.79,27.79,0,0,1-8.51-1.29,20,20,0,0,1-7.12-4,19.28,19.28,0,0,1-4.92-6.87,24.56,24.56,0,0,1-1.84-10,23.76,23.76,0,0,1,1.24-7.46,20.66,20.66,0,0,1,3.78-6.82,19.22,19.22,0,0,1,6.52-4.93,22.15,22.15,0,0,1,9.56-1.89,21,21,0,0,1,8.71,1.69,16.81,16.81,0,0,1,6.17,4.68,19.67,19.67,0,0,1,3.63,7.07,31.68,31.68,0,0,1,1.2,9Zm14.43-19.11a12.31,12.31,0,0,0-6,1.39,14.64,14.64,0,0,0-4.33,3.59,16.37,16.37,0,0,0-2.79,5,24.47,24.47,0,0,0-1.29,5.58h28.37a19.85,19.85,0,0,0-1-5.68,17,17,0,0,0-2.64-5,12.53,12.53,0,0,0-10.25-4.88Z"/><path class="cls-2" d="M296.54,1.05V297.6h-130c3.15-15,8.21-53.71,8-68.28-.3-17.12,8.56-16.24,8.56-16.24s43.31,1.91,47.23,2.65c3.06.57,17.4-4.42,17.4-4.42l6.8-2.65s10.74-4.61,15.35-11.14c0,0,14.09-11.37,11.47-18.8-2-5.66-13.82-9.74-13.82-9.74s-37.6-20.25-43-21.7-11.27-13.94-11.27-13.94S213.76,120,204,113s-23.45-22.23-23.45-22.23,5.62-9.42,5.62-11.85,3.44-10.51,3.44-10.51l5-9.53s2.08-12.12-4.53-6.75C186.49,55,174,66.44,171.71,67.94s-9.42,6.64-9.42,6.64,8.77-32.35,5.67-38.4S159.78,32,159.78,32s-10,11.08-11.19,12.16c-2.4,2.22-24.45,24.45-24.45,24.45S117.48,78,113.79,81.22a22.24,22.24,0,0,1-2.92,2.19S44,138.42,24.1,173.17A321,321,0,0,1,0,207.64V1.05Z"/></g></g></svg>